<svg xmlns="http://www.w3.org/2000/svg" width="240" height="240" viewBox="0 0 240 240" fill="none">
  <defs>
    <linearGradient id="b" x1="36" y1="30" x2="204" y2="210" gradientUnits="userSpaceOnUse">
      <stop stop-color="#78a9ff"/>
      <stop offset="0.46" stop-color="#0f62fe"/>
      <stop offset="1" stop-color="#001d6c"/>
    </linearGradient>
    <linearGradient id="c" x1="80" y1="60" x2="160" y2="186" gradientUnits="userSpaceOnUse">
      <stop stop-color="#ffffff"/>
      <stop offset="1" stop-color="#a6c8ff"/>
    </linearGradient>
  </defs>
  <rect x="20" y="20" width="200" height="200" rx="20" fill="#161616" stroke="#393939" stroke-width="4"/>
  <path d="M120 36L200 84V156L120 204L40 156V84L120 36Z" fill="url(#b)"/>
  <path d="M120 62L176 94V146L120 178L64 146V94L120 62Z" fill="#0b0f1a" opacity="0.92"/>
  <path d="M120 66L164 172H140L132 150H90L82 172H58L104 66H120Z" fill="url(#c)"/>
  <path d="M98 128H124L112 94L98 128Z" fill="#0f62fe"/>
  <path d="M172 64h32v12h-32zM36 164h36v12H36zM156 188h44v12h-44z" fill="#78a9ff" opacity="0.9"/>
  <path d="M48 52h44v8H48zM168 164h28v8h-28z" fill="#ffffff" opacity="0.38"/>
</svg>
